HIERARCHY
ROOT Hips
{
	OFFSET -0.001795 -0.223333 0.028219
	CHANNELS 6 Xposition Yposition Zposition Zrotation Yrotation Xrotation 
	JOINT LeftUpLeg
	{
		OFFSET 0.069520 -0.091406 -0.006815
		CHANNELS 3 Zrotation Yrotation Xrotation
		JOINT LeftLeg
		{
			OFFSET 0.034277 -0.375199 -0.004496
			CHANNELS 3 Zrotation Yrotation Xrotation
			JOINT LeftFoot
			{
				OFFSET -0.013596 -0.397961 -0.043693
				CHANNELS 3 Zrotation Yrotation Xrotation
				JOINT LeftToe
				{
					OFFSET 0.026358 -0.055791 0.119288
					CHANNELS 3 Zrotation Yrotation Xrotation
					End Site
					{
						OFFSET 0.000000 0.000000 0.000000
					}
				}
			}
		}
	}
	JOINT RightUpLeg
	{
		OFFSET -0.067670 -0.090522 -0.004320
		CHANNELS 3 Zrotation Yrotation Xrotation
		JOINT RightLeg
		{
			OFFSET -0.038290 -0.382569 -0.008850
			CHANNELS 3 Zrotation Yrotation Xrotation
			JOINT RightFoot
			{
				OFFSET 0.015774 -0.398415 -0.042312
				CHANNELS 3 Zrotation Yrotation Xrotation
				JOINT RightToe
				{
					OFFSET -0.025372 -0.048144 0.123348
					CHANNELS 3 Zrotation Yrotation Xrotation
					End Site
					{
						OFFSET 0.000000 0.000000 0.000000
					}
				}
			}
		}
	}
	JOINT Spine
	{
		OFFSET -0.002533 0.108963 -0.026696
		CHANNELS 3 Zrotation Yrotation Xrotation
		JOINT Spine1
		{
			OFFSET 0.005487 0.135180 0.001092
			CHANNELS 3 Zrotation Yrotation Xrotation
			JOINT Spine2
			{
				OFFSET 0.001457 0.052922 0.025425
				CHANNELS 3 Zrotation Yrotation Xrotation
				JOINT Neck
				{
					OFFSET -0.002778 0.213870 -0.042857
					CHANNELS 3 Zrotation Yrotation Xrotation
					JOINT Head
					{
						OFFSET 0.005152 0.064970 0.051349
						CHANNELS 3 Zrotation Yrotation Xrotation
						End Site
						{
							OFFSET 0.000000 0.000000 0.000000
						}
					}
				}
				JOINT LeftShoulder
				{
					OFFSET 0.078845 0.121749 -0.034090
					CHANNELS 3 Zrotation Yrotation Xrotation
					JOINT LeftArm
					{
						OFFSET 0.090977 0.030469 -0.008868
						CHANNELS 3 Zrotation Yrotation Xrotation
						JOINT LeftForeArm
						{
							OFFSET 0.259612 -0.012772 -0.027456
							CHANNELS 3 Zrotation Yrotation Xrotation
							JOINT LeftHand
							{
								OFFSET 0.249234 0.008986 -0.001171
								CHANNELS 3 Zrotation Yrotation Xrotation
								End Site
								{
									OFFSET 0.000000 0.000000 0.000000
								}
							}
						}
					}
				}
				JOINT RightShoulder
				{
					OFFSET -0.081759 0.118833 -0.038615
					CHANNELS 3 Zrotation Yrotation Xrotation
					JOINT RightArm
					{
						OFFSET -0.096012 0.032551 -0.009143
						CHANNELS 3 Zrotation Yrotation Xrotation
						JOINT RightForeArm
						{
							OFFSET -0.253742 -0.013329 -0.021401
							CHANNELS 3 Zrotation Yrotation Xrotation
							JOINT RightHand
							{
								OFFSET -0.255298 0.007772 -0.005559
								CHANNELS 3 Zrotation Yrotation Xrotation
								End Site
								{
									OFFSET 0.000000 0.000000 0.000000
								}
							}
						}
					}
				}
			}
		}
	}
}
MOTION
Frames: 10
Frame Time: 0.050000
0.000000 0.806013 0.000000 0.271198 17.868366 -2.362638 16.803154 -0.546045 -17.094653 -8.848522 -1.145824 46.262637 13.581421 26.181261 -7.378421 0.000000 0.000000 0.000000 -21.670092 -5.446133 -28.900620 7.609817 -5.302864 40.574949 -7.469030 -17.666901 0.639751 0.000000 0.000000 0.000000 0.081380 -1.197394 17.664046 7.752314 -0.759545 -26.520511 -0.356893 -6.424035 20.387761 -0.078840 1.524552 -15.520218 0.000000 0.000000 0.000000 -16.404087 -13.264326 4.667859 -52.780982 -45.655051 13.287600 143.585728 -48.605061 -99.819385 0.000000 0.000000 0.000000 2.323591 16.654405 6.291602 48.879901 46.440578 13.930983 -134.530065 40.024898 -66.593340 0.000000 0.000000 0.000000 
0.000364 0.799775 0.000723 0.415987 14.093221 -1.274977 18.999219 -0.106350 -18.540569 -12.896853 1.851976 48.485215 14.623717 28.835436 -4.355665 0.000000 0.000000 0.000000 -21.903880 -5.736719 -34.053112 8.619271 -5.591900 44.689918 -6.345067 -15.180484 2.057197 0.000000 0.000000 0.000000 0.495931 -1.158756 17.608405 8.504411 -0.863558 -28.608486 1.720435 -6.693707 22.823777 -1.673061 2.213850 -14.019659 0.000000 0.000000 0.000000 -18.340195 -14.079654 5.951614 -51.963137 -46.923780 13.489579 148.201296 -45.595228 -100.484138 0.000000 0.000000 0.000000 -0.200697 17.424391 6.028897 50.075153 41.947927 11.594892 -136.239468 39.970980 -69.905678 0.000000 0.000000 0.000000 
0.002975 0.794397 0.002054 0.567949 8.066009 -1.707626 17.547078 0.209482 -16.384127 -11.773372 2.795951 49.616395 16.866034 33.026875 -2.144496 0.000000 0.000000 0.000000 -21.511680 -4.412951 -34.852673 9.759239 -4.766603 42.987408 -5.354177 -12.798733 -1.636359 0.000000 0.000000 0.000000 1.184189 -1.156478 18.212647 14.767638 -2.748145 -25.639629 -3.088230 -4.730383 22.083660 -2.786658 2.949061 -16.792840 0.000000 0.000000 0.000000 -18.753305 -11.733689 5.164139 -46.546547 -48.440113 12.264115 150.860856 -41.742963 -99.092604 0.000000 0.000000 0.000000 2.071221 17.039609 6.121184 51.177353 40.098469 10.813467 -141.937382 42.972391 -83.815758 0.000000 0.000000 0.000000 
0.006327 0.792260 0.004696 0.971455 2.311145 -0.603573 16.855207 0.488135 -14.995310 -12.383850 4.864577 49.715773 17.547152 34.710576 -2.270168 0.000000 0.000000 0.000000 -19.979359 -3.089614 -39.022155 8.425022 -3.015558 44.452004 -4.182132 -10.060554 -1.399598 0.000000 0.000000 0.000000 2.582586 -1.329535 19.535947 15.980170 -3.150761 -25.008125 -4.443235 -7.853813 21.778834 -3.511064 2.546968 -18.338614 0.000000 0.000000 0.000000 -15.991432 -8.839020 4.983597 -51.023649 -53.235843 17.128079 152.553598 -40.129899 -94.862764 0.000000 0.000000 0.000000 -0.225946 15.232251 5.052659 55.241596 39.740727 10.896064 -146.349152 43.245646 -96.075627 0.000000 0.000000 0.000000 
0.010191 0.791101 0.009734 1.728365 -6.141092 0.455618 14.016928 0.608514 -13.447695 -11.522482 7.151199 50.334080 19.792918 37.894804 1.413600 0.000000 0.000000 0.000000 -17.791965 -0.618063 -42.323710 6.278181 -0.319895 43.295067 -2.822683 -5.937727 -3.225502 0.000000 0.000000 0.000000 3.309162 -1.233122 20.699915 17.487554 -3.204830 -26.178144 -7.848843 -10.938797 24.590140 -3.836707 1.546376 -21.708109 0.000000 0.000000 0.000000 -9.925765 -8.470561 5.286106 -50.069337 -58.282554 20.953561 148.246947 -40.015678 -81.450913 0.000000 0.000000 0.000000 2.212990 12.972285 3.879400 56.167254 37.453820 8.574423 -157.020607 45.925302 -125.992590 0.000000 0.000000 0.000000 
0.014542 0.790528 0.018770 0.964410 -15.032300 1.501068 14.324875 0.995634 -10.261239 -12.596603 10.538337 48.440849 20.408868 38.662435 3.284430 0.000000 0.000000 0.000000 -14.619464 2.495753 -45.471371 4.930456 1.782441 42.730164 -1.393587 -1.625836 -3.349903 0.000000 0.000000 0.000000 4.310926 -1.116793 22.111919 19.030256 -3.299253 -26.239691 -9.780245 -14.222727 26.211197 -4.583931 0.719070 -23.319894 0.000000 0.000000 0.000000 -5.743885 -11.264298 6.376298 -40.116142 -62.797190 19.722541 137.250615 -34.848132 -53.622320 0.000000 0.000000 0.000000 5.822038 8.605922 0.921197 53.335631 33.262258 5.521142 -162.449733 44.625939 -143.024056 0.000000 0.000000 0.000000 
0.018264 0.791028 0.031138 0.257918 -21.780568 3.757365 13.692835 1.115936 -8.387802 -12.477695 12.308735 46.417474 18.678632 36.490010 2.597404 0.000000 0.000000 0.000000 -12.323419 5.068220 -47.982889 3.177339 3.407550 41.243697 -0.505983 1.866034 -3.894698 0.000000 0.000000 0.000000 5.696986 -1.102472 24.536608 21.966940 -2.546443 -29.623717 -14.880651 -17.727988 28.078059 -5.193262 0.062954 -23.121203 0.000000 0.000000 0.000000 -0.050154 -14.011931 5.921418 -27.036914 -61.831439 14.064425 126.866433 -27.270106 -29.914252 0.000000 0.000000 0.000000 11.338432 6.848484 -2.740486 46.269159 27.450784 3.301278 -161.795477 43.779773 -144.388176 0.000000 0.000000 0.000000 
0.021133 0.789533 0.044952 -0.108810 -27.254650 4.618247 13.118288 1.140404 -5.388574 -13.880389 14.019690 42.953447 19.183524 36.963511 4.431003 0.000000 0.000000 0.000000 -11.631470 6.840361 -49.620547 3.478716 4.053869 41.524540 0.064106 4.595053 -4.302548 0.000000 0.000000 0.000000 6.510411 -0.933388 25.256526 22.617301 -2.607045 -28.422802 -15.995554 -20.699929 27.790458 -5.471601 -0.488889 -23.000442 0.000000 0.000000 0.000000 3.177110 -17.927906 6.467398 -12.199279 -59.052987 6.941349 119.615355 -15.384132 -7.809684 0.000000 0.000000 0.000000 15.223782 6.818024 -5.757070 39.109793 20.216114 1.882417 -157.656813 46.590661 -140.306078 0.000000 0.000000 0.000000 
0.023515 0.786483 0.057631 -0.721442 -29.999741 5.723210 12.374144 1.052803 -3.013744 -14.457541 14.374975 40.352721 17.650308 36.543713 0.565868 0.000000 0.000000 0.000000 -10.072558 8.137791 -50.186701 1.453376 5.367168 41.423703 -0.273484 6.431618 -6.417636 0.000000 0.000000 0.000000 6.944637 -0.841485 25.973967 24.147738 -1.586132 -31.317376 -19.418889 -22.948107 30.586668 -6.265902 -0.529925 -21.865237 0.000000 0.000000 0.000000 4.766871 -20.037499 6.687019 -2.581128 -56.967349 2.811120 114.263955 -6.768270 5.096786 0.000000 0.000000 0.000000 17.195734 6.618306 -7.903134 35.296992 15.224990 0.893622 -155.253427 48.149991 -136.903781 0.000000 0.000000 0.000000 
0.025416 0.781658 0.068039 -0.607834 -31.153141 5.968935 12.022295 1.017835 -1.615800 -14.645301 14.664191 39.782479 15.232000 33.528979 -2.538943 0.000000 0.000000 0.000000 -10.180134 8.610969 -51.157610 1.194098 5.995913 43.181102 -0.741467 6.822331 -7.933674 0.000000 0.000000 0.000000 7.946946 -0.973068 26.045102 23.545129 -1.596670 -30.935292 -19.506438 -24.503041 30.668909 -5.892636 -1.124627 -23.195139 0.000000 0.000000 0.000000 4.995536 -21.453433 7.317386 2.014100 -56.362703 0.965602 111.622122 -2.057222 11.175193 0.000000 0.000000 0.000000 17.670229 6.209906 -8.909686 33.322530 12.106804 0.350726 -151.389328 49.466176 -130.975155 0.000000 0.000000 0.000000 
